<?xml version="1.0" standalone="no"?>
<!DOCTYPE svg PUBLIC "-//W3C//DTD SVG 20010904//EN"
 "http://www.w3.org/TR/2001/REC-SVG-20010904/DTD/svg10.dtd%22%3E
<svg version="1.0" xmlns="http://www.w3.org/2000/svg"
 width="100.000000pt" height="100.000000pt" viewBox="0 0 100.000000 100.000000"
 preserveAspectRatio="xMidYMid meet">

<g transform="translate(0.000000,100.000000) scale(0.100000,-0.100000)"
fill="#000000" stroke="none">
<path d="M460 878 c-107 -30 -152 -167 -83 -249 75 -89 211 -78 265 21 25 45
20 129 -9 168 -40 53 -111 78 -173 60z m101 -58 c24 -13 49 -61 49 -94 0 -62
-46 -106 -113 -106 -98 0 -137 137 -56 194 26 18 90 21 120 6z"/>
<path d="M393 511 c-117 -40 -178 -116 -198 -247 -6 -41 -6 -41 44 -74 153
-98 370 -98 523 -1 l47 30 -4 55 c-11 183 -220 304 -412 237z m232 -58 c70
-36 115 -91 129 -159 6 -28 3 -35 -25 -55 -125 -89 -321 -93 -437 -9 -48 34
-51 53 -23 116 22 48 79 98 136 119 56 20 168 14 220 -12z"/>
</g>
</svg>
