<svg version="1.1" id="Layer_1" xmlns="http://www.w3.org/2000/svg" xmlns:xlink="http://www.w3.org/1999/xlink" x="0px" y="0px"
	 width="100%" viewBox="0 0 250 250" enable-background="new 0 0 250 250" xml:space="preserve">
<path fill="#FFFFFF" opacity="1.000000" stroke="none" 
	d="
M168.000000,251.000000 
	C112.000000,251.000000 56.500008,251.000000 1.000007,251.000000 
	C1.000005,167.666672 1.000005,84.333351 1.000003,1.000019 
	C84.333321,1.000012 167.666641,1.000012 250.999969,1.000006 
	C250.999969,84.333313 250.999969,167.666626 250.999985,250.999969 
	C223.500000,251.000000 196.000000,251.000000 168.000000,251.000000 
M163.089920,140.948944 
	C163.089920,140.948944 163.137192,140.914062 163.091660,140.202942 
	C161.980576,138.353821 160.907303,136.480713 159.752090,134.659592 
	C153.770340,125.229820 154.366684,118.622887 161.896317,110.432533 
	C167.860092,103.945412 173.849747,97.479568 179.692383,90.884232 
	C186.385529,83.328857 185.915070,72.393570 178.774750,65.755577 
	C171.586838,59.073353 160.488510,59.280899 153.717819,66.799637 
	C143.600601,78.034653 133.869781,89.617638 123.385345,101.373268 
	C123.040314,101.732361 122.734474,102.142799 122.343269,102.441406 
	C120.864159,103.570412 119.357338,104.663109 117.860893,105.769402 
	C117.231247,103.880287 116.110397,102.004631 116.058189,100.099693 
	C115.848289,92.440788 116.049400,84.771751 115.947266,77.108467 
	C115.817993,67.409409 108.228600,59.075146 98.778351,58.070683 
	C89.097969,57.041756 79.414253,63.197777 78.212936,72.913162 
	C76.936569,83.235420 77.564026,93.793098 77.221886,104.842743 
	C77.260437,105.237411 77.298988,105.632080 77.207817,106.951363 
	C77.272964,115.313087 77.338112,123.674820 77.255310,132.962997 
	C77.328468,147.299011 77.401627,161.635010 77.283005,176.710098 
	C78.190094,184.138458 81.561195,189.794830 89.374725,193.044861 
	C102.726212,197.473007 114.332146,190.049423 115.812378,175.434265 
	C115.759041,166.862076 115.705704,158.289871 115.957848,149.158859 
	C119.436096,144.056763 122.778412,144.051392 126.107292,149.268753 
	C132.433731,159.184250 138.684250,169.148163 145.233871,179.715317 
	C146.659058,181.953964 147.987167,184.261871 149.526688,186.418915 
	C155.317291,194.532242 165.988831,196.649200 174.266068,191.397079 
	C182.510864,186.165527 185.188095,175.573868 180.203552,166.926865 
	C177.641235,162.481873 174.623184,158.299576 171.634293,153.350845 
	C169.104691,149.556900 166.575089,145.762955 163.928085,141.430893 
	C163.634354,141.256927 163.340622,141.082947 163.089920,140.948944 
M73.815605,51.108185 
	C72.941383,49.524837 72.266083,47.783352 71.156235,46.387329 
	C67.603462,41.918468 61.501369,40.870255 56.929787,43.766163 
	C52.126301,46.808975 50.210972,52.959206 52.488708,58.026676 
	C54.669212,62.877823 59.862076,65.725510 64.549561,64.640663 
	C70.613991,63.237144 73.870071,58.813869 73.815605,51.108185 
M196.136841,135.935455 
	C189.572876,135.922653 185.682678,138.288620 183.976685,143.331116 
	C182.440811,147.870773 183.997833,153.001190 187.895538,155.776871 
	C191.609344,158.421600 195.633148,158.788742 199.668793,156.645142 
	C203.705460,154.501007 205.811493,150.902252 205.543945,146.405090 
	C205.224792,141.040924 202.221558,137.502487 196.136841,135.935455 
M181.266586,100.905060 
	C178.760834,105.042328 178.315857,109.594666 181.937561,112.795151 
	C184.349670,114.926712 188.336914,116.325432 191.566238,116.231560 
	C196.173721,116.097649 198.837067,112.343987 199.491806,107.858681 
	C200.127548,103.503662 198.240265,99.941765 194.334106,97.898041 
	C189.623627,95.433487 185.325348,96.370575 181.266586,100.905060 
M51.918697,144.918793 
	C56.581978,146.957245 60.768394,146.226700 64.083488,142.361893 
	C66.955200,139.013977 67.302383,135.118195 65.218994,131.220230 
	C63.127594,127.307289 59.688057,125.545860 55.292038,126.024048 
	C51.097267,126.480347 48.221790,128.875473 46.952557,132.866837 
	C45.391895,137.774658 47.141418,141.629395 51.918697,144.918793 
M66.049049,112.705261 
	C66.857841,108.764412 65.636559,105.320572 61.783726,104.367020 
	C59.485538,103.798241 56.119461,104.657089 54.191044,106.128868 
	C50.947842,108.604103 51.540051,113.458870 54.693005,116.149872 
	C58.326859,119.251343 62.404987,118.249008 66.049049,112.705261 
M129.087601,198.596527 
	C126.703560,197.553665 124.214439,195.478165 121.959869,195.707596 
	C118.493805,196.060287 116.773567,199.082855 117.395935,202.739960 
	C117.981674,206.181900 121.610092,208.672943 124.808754,207.690933 
	C128.892593,206.437180 130.745132,203.663940 129.087601,198.596527 
M175.278152,130.015182 
	C179.316116,129.066620 181.788116,126.347389 180.298340,122.516464 
	C179.450500,120.336220 176.023422,117.699974 173.959000,117.860268 
	C171.874908,118.022079 168.846161,121.130402 168.358963,123.403824 
	C167.508072,127.374435 170.303329,129.775803 175.278152,130.015182 
M103.337852,208.136749 
	C105.433594,210.170486 107.986282,210.743118 109.715637,208.300476 
	C110.679611,206.938904 110.824913,204.074738 110.003075,202.668594 
	C109.364151,201.575394 105.597542,200.814316 105.080460,201.440674 
	C103.793686,202.999374 103.568672,205.434616 103.337852,208.136749 
M85.416283,54.987755 
	C86.088844,53.312675 87.781258,50.899971 87.216820,50.119583 
	C86.119034,48.601784 83.740059,47.267765 81.922089,47.305809 
	C80.909851,47.326992 79.097565,50.299118 79.161156,51.880402 
	C79.289185,55.063831 81.654419,56.219204 85.416283,54.987755 
z"/>
<path fill="#FACA2C" opacity="1.000000" stroke="none" 
	d="
M123.974579,101.052597 
	C133.869781,89.617638 143.600601,78.034653 153.717819,66.799637 
	C160.488510,59.280899 171.586838,59.073353 178.774750,65.755577 
	C185.915070,72.393570 186.385529,83.328857 179.692383,90.884232 
	C173.849747,97.479568 167.860092,103.945412 161.896317,110.432533 
	C154.366684,118.622887 153.770340,125.229820 159.752090,134.659592 
	C160.907303,136.480713 161.980576,138.353821 162.736542,140.577515 
	C154.530533,137.591873 146.631088,134.448227 137.583008,135.361633 
	C137.072281,135.162354 136.771759,135.080399 136.331757,134.696594 
	C133.227539,129.411240 130.251801,124.468094 127.241791,119.093796 
	C126.129883,112.792633 125.052231,106.922615 123.974579,101.052597 
z"/>
<path fill="#F7B1BF" opacity="1.000000" stroke="none" 
	d="
M123.679962,101.212936 
	C125.052231,106.922615 126.129883,112.792633 126.901634,118.884422 
	C112.834213,107.459961 97.062210,102.246902 78.760620,104.180496 
	C78.109459,104.161148 77.734802,104.204552 77.360138,104.247971 
	C77.564026,93.793098 76.936569,83.235420 78.212936,72.913162 
	C79.414253,63.197777 89.097969,57.041756 98.778351,58.070683 
	C108.228600,59.075146 115.817993,67.409409 115.947266,77.108467 
	C116.049400,84.771751 115.848289,92.440788 116.058189,100.099693 
	C116.110397,102.004631 117.231247,103.880287 117.860886,105.769394 
	C119.357338,104.663109 120.864159,103.570412 122.343269,102.441406 
	C122.734474,102.142799 123.040314,101.732361 123.679962,101.212936 
z"/>
<path fill="#E1222B" opacity="1.000000" stroke="none" 
	d="
M136.460236,135.038818 
	C136.771759,135.080399 137.072281,135.162354 137.685547,135.655258 
	C139.681961,138.007034 141.354614,139.988235 143.026672,142.364166 
	C143.578156,144.653793 144.110809,146.554596 144.685623,148.442581 
	C147.788223,158.632874 147.773346,168.848953 144.966309,179.091965 
	C138.684250,169.148163 132.433731,159.184250 126.107292,149.268753 
	C122.778412,144.051392 119.436096,144.056763 115.402542,149.688278 
	C114.645103,158.442612 114.420845,166.667191 114.300957,174.893295 
	C114.294426,175.341919 115.158981,175.803223 115.618057,176.258636 
	C114.332146,190.049423 102.726212,197.473007 89.056953,192.407745 
	C88.651550,187.972214 88.155586,184.131256 88.546059,180.382660 
	C90.360222,162.966660 99.494133,150.193375 114.489410,141.005066 
	C122.049416,138.978088 129.254822,137.008453 136.460236,135.038818 
z"/>
<path fill="#3363C9" opacity="1.000000" stroke="none" 
	d="
M136.331757,134.696594 
	C129.254822,137.008453 122.049416,138.978088 114.049347,140.975937 
	C109.046120,140.462463 104.733376,140.329544 100.651871,139.289307 
	C93.387482,137.437866 86.263046,135.037338 78.940735,132.662430 
	C78.335358,132.317780 77.869316,132.177155 77.403259,132.036545 
	C77.338112,123.674820 77.272964,115.313087 77.537720,106.432907 
	C78.257454,105.357391 78.647293,104.800323 79.037125,104.243248 
	C97.062210,102.246902 112.834213,107.459961 126.935898,119.315567 
	C130.251801,124.468094 133.227539,129.411240 136.331757,134.696594 
z"/>
<path fill="#EE3A24" opacity="1.000000" stroke="none" 
	d="
M145.100098,179.403641 
	C147.773346,168.848953 147.788223,158.632874 144.685623,148.442581 
	C144.110809,146.554596 143.578156,144.653793 143.337097,142.506317 
	C144.858963,143.087646 146.024551,143.998291 147.287994,144.742920 
	C154.924530,149.243607 162.555847,153.779556 171.811081,153.998566 
	C174.623184,158.299576 177.641235,162.481873 180.203552,166.926865 
	C185.188095,175.573868 182.510864,186.165527 174.266068,191.397079 
	C165.988831,196.649200 155.317291,194.532242 149.526688,186.418915 
	C147.987167,184.261871 146.659058,181.953964 145.100098,179.403641 
z"/>
<path fill="#1B4894" opacity="1.000000" stroke="none" 
	d="
M79.080063,132.866470 
	C86.263046,135.037338 93.387482,137.437866 100.651871,139.289307 
	C104.733376,140.329544 109.046120,140.462463 113.694756,141.033295 
	C99.494133,150.193375 90.360222,162.966660 88.546059,180.382660 
	C88.155586,184.131256 88.651550,187.972214 88.756516,192.229599 
	C81.561195,189.794830 78.190094,184.138458 77.730247,176.197388 
	C78.451851,173.960617 78.951622,172.238220 78.964493,170.512207 
	C79.058067,157.964035 79.053566,145.415146 79.080063,132.866470 
z"/>
<path fill="#F8B1BF" opacity="1.000000" stroke="none" 
	d="
M73.869980,51.506752 
	C73.870071,58.813869 70.613991,63.237144 64.549561,64.640663 
	C59.862076,65.725510 54.669212,62.877823 52.488708,58.026676 
	C50.210972,52.959206 52.126301,46.808975 56.929787,43.766163 
	C61.501369,40.870255 67.603462,41.918468 71.156235,46.387329 
	C72.266083,47.783352 72.941383,49.524837 73.869980,51.506752 
z"/>
<path fill="#EE3C26" opacity="1.000000" stroke="none" 
	d="
M196.544357,135.988266 
	C202.221558,137.502487 205.224792,141.040924 205.543945,146.405090 
	C205.811493,150.902252 203.705460,154.501007 199.668793,156.645142 
	C195.633148,158.788742 191.609344,158.421600 187.895538,155.776871 
	C183.997833,153.001190 182.440811,147.870773 183.976685,143.331116 
	C185.682678,138.288620 189.572876,135.922653 196.544357,135.988266 
z"/>
<path fill="#FACB2E" opacity="1.000000" stroke="none" 
	d="
M181.495255,100.611519 
	C185.325348,96.370575 189.623627,95.433487 194.334106,97.898041 
	C198.240265,99.941765 200.127548,103.503662 199.491806,107.858681 
	C198.837067,112.343987 196.173721,116.097649 191.566238,116.231560 
	C188.336914,116.325432 184.349670,114.926712 181.937561,112.795151 
	C178.315857,109.594666 178.760834,105.042328 181.495255,100.611519 
z"/>
<path fill="#1D4A95" opacity="1.000000" stroke="none" 
	d="
M51.581833,144.728165 
	C47.141418,141.629395 45.391895,137.774658 46.952557,132.866837 
	C48.221790,128.875473 51.097267,126.480347 55.292038,126.024048 
	C59.688057,125.545860 63.127594,127.307289 65.218994,131.220230 
	C67.302383,135.118195 66.955200,139.013977 64.083488,142.361893 
	C60.768394,146.226700 56.581978,146.957245 51.581833,144.728165 
z"/>
<path fill="#FF5C0E" opacity="1.000000" stroke="none" 
	d="
M171.722687,153.674713 
	C162.555847,153.779556 154.924530,149.243607 147.287994,144.742920 
	C146.024551,143.998291 144.858963,143.087646 143.337708,142.111572 
	C141.354614,139.988235 139.681961,138.007034 137.906769,135.732208 
	C146.631088,134.448227 154.530533,137.591873 162.759308,140.933075 
	C163.137192,140.914062 163.089920,140.948944 163.124756,141.188690 
	C163.454895,141.608612 163.750198,141.788818 164.045502,141.969009 
	C166.575089,145.762955 169.104691,149.556900 171.722687,153.674713 
z"/>
<path fill="#1D4A95" opacity="1.000000" stroke="none" 
	d="
M65.957367,113.054550 
	C62.404987,118.249008 58.326859,119.251343 54.693005,116.149872 
	C51.540051,113.458870 50.947842,108.604103 54.191044,106.128868 
	C56.119461,104.657089 59.485538,103.798241 61.783726,104.367020 
	C65.636559,105.320572 66.857841,108.764412 65.957367,113.054550 
z"/>
<path fill="#EE3C26" opacity="1.000000" stroke="none" 
	d="
M129.244125,198.944885 
	C130.745132,203.663940 128.892593,206.437180 124.808754,207.690933 
	C121.610092,208.672943 117.981674,206.181900 117.395935,202.739960 
	C116.773567,199.082855 118.493805,196.060287 121.959869,195.707596 
	C124.214439,195.478165 126.703560,197.553665 129.244125,198.944885 
z"/>
<path fill="#FACB2E" opacity="1.000000" stroke="none" 
	d="
M174.881592,130.038025 
	C170.303329,129.775803 167.508072,127.374435 168.358963,123.403824 
	C168.846161,121.130402 171.874908,118.022079 173.959000,117.860268 
	C176.023422,117.699974 179.450500,120.336220 180.298340,122.516464 
	C181.788116,126.347389 179.316116,129.066620 174.881592,130.038025 
z"/>
<path fill="#0B3C8D" opacity="1.000000" stroke="none" 
	d="
M78.940735,132.662430 
	C79.053566,145.415146 79.058067,157.964035 78.964493,170.512207 
	C78.951622,172.238220 78.451851,173.960617 77.826141,175.827850 
	C77.401627,161.635010 77.328468,147.299011 77.329285,132.499771 
	C77.869316,132.177155 78.335358,132.317780 78.940735,132.662430 
z"/>
<path fill="#F2604A" opacity="1.000000" stroke="none" 
	d="
M103.127602,207.827332 
	C103.568672,205.434616 103.793686,202.999374 105.080460,201.440674 
	C105.597542,200.814316 109.364151,201.575394 110.003075,202.668594 
	C110.824913,204.074738 110.679611,206.938904 109.715637,208.300476 
	C107.986282,210.743118 105.433594,210.170486 103.127602,207.827332 
z"/>
<path fill="#F8B1BF" opacity="1.000000" stroke="none" 
	d="
M85.105415,55.194885 
	C81.654419,56.219204 79.289185,55.063831 79.161156,51.880402 
	C79.097565,50.299118 80.909851,47.326992 81.922089,47.305809 
	C83.740059,47.267765 86.119034,48.601784 87.216820,50.119583 
	C87.781258,50.899971 86.088844,53.312675 85.105415,55.194885 
z"/>
<path fill="#E0151D" opacity="1.000000" stroke="none" 
	d="
M115.715218,175.846451 
	C115.158981,175.803223 114.294426,175.341919 114.300957,174.893295 
	C114.420845,166.667191 114.645103,158.442612 115.249809,149.967682 
	C115.705704,158.289871 115.759041,166.862076 115.715218,175.846451 
z"/>
<path fill="#5077C1" opacity="1.000000" stroke="none" 
	d="
M78.760628,104.180496 
	C78.647293,104.800323 78.257454,105.357391 77.602585,105.970604 
	C77.298988,105.632080 77.260437,105.237411 77.291016,104.545349 
	C77.734802,104.204552 78.109459,104.161148 78.760628,104.180496 
z"/>
<path fill="#FACA2C" opacity="1.000000" stroke="none" 
	d="
M163.986786,141.699951 
	C163.750198,141.788818 163.454895,141.608612 163.103241,141.168701 
	C163.340622,141.082947 163.634354,141.256927 163.986786,141.699951 
z"/>
</svg>