<?xml version="1.0" encoding="iso-8859-1"?>
<!-- Uploaded to: SVG Repo, www.svgrepo.com, Generator: SVG Repo Mixer Tools -->
<svg version="1.1" id="Layer_1" xmlns="http://www.w3.org/2000/svg" xmlns:xlink="http://www.w3.org/1999/xlink" 
	 viewBox="0 0 512 512" xml:space="preserve">
<path style="fill:#F8F8F9;" d="M473.6,19.2H38.4C17.193,19.2,0,36.393,0,57.6v307.2c0,21.207,17.193,38.4,38.4,38.4h128l89.6,89.6
	l89.6-89.6h128c21.207,0,38.4-17.193,38.4-38.4V57.6C512,36.393,494.807,19.2,473.6,19.2z"/>
<path style="fill:#EDEDED;" d="M473.6,19.2H256v473.6l89.6-89.6h128c21.207,0,38.4-17.193,38.4-38.4V57.6
	C512,36.393,494.807,19.2,473.6,19.2z"/>
<g>
	<rect x="76.8" y="115.2" style="fill:#88888F;" width="307.2" height="38.4"/>
	<rect x="76.8" y="268.8" style="fill:#88888F;" width="256" height="38.4"/>
	<rect x="76.8" y="192" style="fill:#88888F;" width="358.4" height="38.4"/>
</g>
<g>
	<rect x="256" y="115.2" style="fill:#797781;" width="128" height="38.4"/>
	<rect x="256" y="268.8" style="fill:#797781;" width="76.8" height="38.4"/>
	<rect x="256" y="192" style="fill:#797781;" width="179.2" height="38.4"/>
</g>
</svg>