<svg class="svg-icon" style="width: 1em; height: 1em;vertical-align: middle;fill: currentColor;overflow: hidden;" viewBox="0 0 1024 1024" version="1.1" xmlns="http://www.w3.org/2000/svg"><path d="M510.752 448.032c-70.304 0-127.552 57.216-127.552 127.52s57.248 127.52 127.552 127.52c70.304 0 127.52-57.248 127.52-127.52 0-70.24-57.248-127.52-127.52-127.52l0 0zM875.104 261.792l-147.2 0c0-70.496-57.12-127.584-127.552-127.584l-176.608 0c-70.496 0-127.584 57.12-127.584 127.584l-147.2 0c-70.496 0-127.616 57.12-127.616 127.552l0 372.896c0 70.464 57.12 127.552 127.584 127.552l726.176 0c70.56 0 127.584-57.088 127.584-127.552l0-372.896c0-70.432-57.12-127.552-127.584-127.552l0 0zM512 801.504c-124.448 0-225.696-101.248-225.696-225.696s101.248-225.696 225.696-225.696 225.696 101.248 225.696 225.696-101.248 225.696-225.696 225.696l0 0z"  /></svg>